<svg xmlns="http://www.w3.org/2000/svg" aria-hidden="true" style="position:absolute;width:0;height:0;overflow:hidden">
    <defs>
        <symbol id="icon-rocket" viewBox="0 0 32 32">
            <path fill="#7eb101"
                d="m7.233 13.633 3.533 1.5c.4-.8.828-1.589 1.283-2.367s.939-1.522 1.45-2.233L10.866 10l-3.633 3.633zm5.134 2.7 4.433 4.433c1.267-.578 2.456-1.233 3.567-1.967s2.011-1.444 2.7-2.133c1.8-1.8 3.122-3.644 3.967-5.533s1.3-4.022 1.367-6.4c-2.378.067-4.511.522-6.4 1.367s-3.733 2.167-5.533 3.967c-.689.689-1.4 1.589-2.133 2.7s-1.389 2.3-1.967 3.567zm7.633-3.2c-.444-.444-.667-.995-.667-1.65s.222-1.206.667-1.65.994-.667 1.65-.667c.656 0 1.206.222 1.65.667s.667.994.667 1.65c0 .655-.222 1.206-.667 1.65s-.994.667-1.65.667-1.206-.222-1.65-.667zM19.5 25.9l3.633-3.633-.533-2.633c-.711.511-1.456.994-2.233 1.45S18.8 21.967 18 22.367l1.5 3.533zM30.367 2.767c.2 3.022-.178 5.778-1.133 8.267s-2.533 4.833-4.733 7.033l-.133.133.733 3.667c.067.333.05.656-.05.967s-.272.589-.517.833l-5.7 5.733-2.833-6.6-5.667-5.667-6.6-2.833 5.733-5.7c.244-.244.522-.417.833-.517s.633-.117.967-.05l3.667.733c.022-.022.044-.039.067-.05s.044-.028.067-.05c2.2-2.2 4.544-3.783 7.033-4.75s5.244-1.35 8.267-1.15zm-24.4 18.4c.778-.778 1.728-1.172 2.85-1.183s2.072.372 2.85 1.15c.778.778 1.161 1.728 1.15 2.85s-.406 2.072-1.183 2.85c-.578.578-1.472 1.055-2.683 1.433s-3.028.733-5.45 1.067c.333-2.422.683-4.244 1.05-5.467s.839-2.122 1.417-2.7zm1.4 1.433c-.311.333-.589.856-.833 1.567s-.456 1.622-.633 2.733c1.111-.178 2.022-.389 2.733-.633s1.233-.522 1.567-.833c.422-.378.639-.85.65-1.417s-.183-1.061-.583-1.483c-.422-.4-.917-.595-1.483-.583s-1.039.228-1.417.65z"
                style="fill:var(--color1, #7eb101)" />
        </symbol>
        <symbol id="icon-stars" viewBox="0 0 180 32">
            <path d="M13.707 2.191c.519-1.254 2.289-1.254 2.808 0l3.066 7.403c.219.529.714.89 1.283.936l7.957.641c1.348.109 1.895 1.798.868 2.682l-6.063 5.216a1.532 1.532 0 0 0-.49 1.514l1.852 7.799c.314 1.321-1.117 2.366-2.272 1.658l-6.813-4.179a1.512 1.512 0 0 0-1.585 0L7.505 30.04c-1.154.708-2.586-.336-2.272-1.658l1.852-7.799a1.531 1.531 0 0 0-.49-1.514L.532 13.853c-1.027-.884-.481-2.574.868-2.682l7.958-.641a1.523 1.523 0 0 0 1.283-.936l3.066-7.403zM51.041 2.191c.519-1.254 2.289-1.254 2.808 0l3.066 7.403c.219.529.714.89 1.283.936l7.957.641c1.348.109 1.895 1.798.868 2.682l-6.063 5.216a1.532 1.532 0 0 0-.49 1.514l1.852 7.799c.314 1.321-1.117 2.366-2.272 1.658l-6.813-4.179a1.512 1.512 0 0 0-1.585 0l-6.813 4.179c-1.154.708-2.586-.336-2.272-1.658l1.852-7.799a1.531 1.531 0 0 0-.49-1.514l-6.063-5.216c-1.027-.884-.481-2.574.868-2.682l7.958-.641a1.521 1.521 0 0 0 1.282-.936l3.066-7.403zM88.374 2.191c.519-1.254 2.289-1.254 2.808 0l3.066 7.403c.219.529.714.89 1.283.936l7.957.641c1.348.109 1.895 1.798.868 2.682l-6.063 5.216a1.532 1.532 0 0 0-.49 1.514l1.852 7.799c.314 1.321-1.117 2.366-2.272 1.658l-6.813-4.179a1.512 1.512 0 0 0-1.585 0l-6.813 4.179c-1.154.708-2.586-.336-2.272-1.658l1.852-7.799a1.531 1.531 0 0 0-.49-1.514l-6.063-5.216c-1.027-.884-.481-2.574.868-2.682l7.958-.641a1.521 1.521 0 0 0 1.282-.936l3.066-7.403zM125.707 2.191c.519-1.254 2.289-1.254 2.808 0l3.066 7.403c.219.529.714.89 1.283.936l7.958.641c1.348.109 1.895 1.798.868 2.682l-6.063 5.216a1.532 1.532 0 0 0-.49 1.514l1.852 7.799c.314 1.321-1.117 2.366-2.272 1.658l-6.813-4.179a1.512 1.512 0 0 0-1.585 0l-6.813 4.179c-1.154.708-2.586-.336-2.272-1.658l1.852-7.799a1.531 1.531 0 0 0-.49-1.514l-6.063-5.216c-1.027-.884-.481-2.574.868-2.682l7.958-.641a1.521 1.521 0 0 0 1.282-.936l3.066-7.403zM163.041 2.191c.519-1.254 2.289-1.254 2.808 0l3.066 7.403c.219.529.714.89 1.283.936l7.958.641c1.348.109 1.895 1.798.868 2.682l-6.063 5.216a1.532 1.532 0 0 0-.49 1.514l1.852 7.799c.314 1.321-1.117 2.366-2.272 1.658l-6.813-4.179a1.512 1.512 0 0 0-1.585 0l-6.813 4.179c-1.154.708-2.586-.336-2.272-1.658l1.852-7.799a1.531 1.531 0 0 0-.49-1.514l-6.063-5.216c-1.027-.884-.481-2.574.868-2.682l7.958-.641a1.521 1.521 0 0 0 1.282-.936l3.066-7.403z" />
        </symbol>
        <symbol id="icon-touch" viewBox="0 0 32 32">
            <path fill="#7eb101"
                d="M15.5 1.333c2.022 0 3.75.706 5.183 2.117s2.15 3.128 2.15 5.15c0 1.156-.25 2.244-.75 3.267s-1.206 1.889-2.117 2.6h-1.133V12.8c.645-.511 1.139-1.133 1.483-1.867s.517-1.511.517-2.333c0-1.467-.522-2.711-1.567-3.733s-2.3-1.533-3.767-1.533-2.722.511-3.767 1.533c-1.044 1.022-1.567 2.267-1.567 3.733 0 .822.172 1.6.517 2.333s.839 1.356 1.483 1.867v2.4c-1.245-.645-2.222-1.556-2.933-2.733S8.165 10 8.165 8.6c0-2.022.717-3.739 2.15-5.15s3.161-2.117 5.183-2.117zm-1.267 28c-.378 0-.733-.072-1.067-.217s-.622-.339-.867-.583l-6.867-6.867 1.867-1.933c.311-.311.661-.55 1.05-.717s.794-.194 1.217-.083l2.6.6V8.666c0-.933.322-1.722.967-2.367s1.433-.967 2.367-.967 1.722.322 2.367.967c.644.644.967 1.433.967 2.367v5.733h.867c.111 0 .211.022.3.067s.189.089.3.133l4.933 2.4c.533.244.928.639 1.183 1.183s.328 1.106.217 1.683l-1.2 7.267c-.111.645-.422 1.172-.933 1.583s-1.089.617-1.733.617h-8.533zm-.266-2h9.367l1.433-8.3-6.1-3.033h-1.833V8.667c0-.4-.122-.722-.367-.967s-.567-.367-.967-.367-.722.122-.967.367c-.244.244-.367.567-.367.967v13.3l-5.133-1.1-.767.767 5.7 5.7zm9.366 0z"
                style="fill:var(--color1, #7eb101)" />
        </symbol>
        <!-- Icon for Header Mobile==================== -->
      <symbol id="icon-Vector" viewBox="0 0 43 32">
<path fill="#7eb101" style="fill: var(--color1, #7eb101)" d="M0.592 3.556c0-0.55 0.219-1.078 0.607-1.467s0.917-0.607 1.467-0.607h37.333c0.55 0 1.078 0.219 1.466 0.607s0.607 0.917 0.607 1.467c0 0.55-0.218 1.078-0.607 1.467s-0.916 0.607-1.466 0.607h-37.333c-0.55 0-1.078-0.219-1.467-0.607s-0.607-0.917-0.607-1.467zM0.592 16.066c0-0.55 0.219-1.078 0.607-1.467s0.917-0.607 1.467-0.607h37.333c0.55 0 1.078 0.219 1.466 0.607s0.607 0.916 0.607 1.467c0 0.55-0.218 1.078-0.607 1.467s-0.916 0.607-1.466 0.607h-37.333c-0.55 0-1.078-0.218-1.467-0.607s-0.607-0.916-0.607-1.467zM2.666 26.503c-0.55 0-1.078 0.219-1.467 0.607s-0.607 0.917-0.607 1.467 0.219 1.078 0.607 1.467c0.389 0.389 0.917 0.607 1.467 0.607h37.333c0.55 0 1.078-0.218 1.467-0.607s0.607-0.917 0.607-1.467c0-0.55-0.218-1.078-0.607-1.467s-0.916-0.607-1.466-0.607h-37.333z"></path>
</symbol>
        <symbol id="icon-close-modal" viewBox="0 0 30 32">
        
            <path
                d="M16.219 14.826l4.928-4.924c0.166-0.194 0.253-0.443 0.243-0.698s-0.116-0.497-0.296-0.677c-0.181-0.18-0.423-0.286-0.678-0.296s-0.505 0.077-0.699 0.243l-4.928 4.873-4.958-4.954c-0.194-0.166-0.443-0.253-0.699-0.243s-0.497 0.116-0.678 0.296c-0.181 0.18-0.286 0.422-0.296 0.677s0.077 0.504 0.243 0.698l4.948 5.005-4.846 4.782c-0.106 0.091-0.192 0.203-0.253 0.328s-0.095 0.263-0.1 0.402 0.018 0.279 0.069 0.409c0.051 0.13 0.128 0.248 0.227 0.347s0.217 0.176 0.347 0.227c0.13 0.051 0.269 0.074 0.409 0.069s0.277-0.040 0.402-0.1c0.126-0.061 0.238-0.147 0.329-0.253l4.836-4.833 4.806 4.802c0.194 0.166 0.443 0.253 0.699 0.243s0.497-0.116 0.678-0.296c0.181-0.18 0.286-0.422 0.296-0.677s-0.077-0.504-0.243-0.698l-4.786-4.751z">
            </path>
        </symbol>
    </defs>
</svg>